<?xml version="1.0" encoding="UTF-8"?>
<svg id="Capa_1" data-name="Capa 1" xmlns="http://www.w3.org/2000/svg" viewBox="0 0 755.19 424.59">
  <g>
    <path d="M518.29,113.86v14.02l-43.52,19.38,43.52,19.5v14.14l-58.15-26.94v-13.16l58.15-26.94Z"/>
    <path d="M584.49,93.02l-55.1,112.89h-12.8l55.1-112.89h12.8Z"/>
    <path d="M584.48,180.91v-14.02l43.52-19.38-43.52-19.5v-14.14l58.15,26.94v13.16l-58.15,26.94Z"/>
  </g>
  <path d="M127.4,136.68h-40.07v91.33c8-5.26,18.7-8.19,31.39-8.19,19.07,0,33.87,4.11,46.25,12.89,16.5-9.17,24.77-24.98,24.77-44.3v-.3c0-30.95-20.78-51.43-62.35-51.43Zm27.06,52.48c0,15.1-10.32,21.68-26.31,21.68h-5.83v-43.66h5.83c16,0,26.31,6.58,26.31,21.68v.3Z"/>
  <path d="M237.28,219.51c19.48,0,36.49,8.46,47.36,21.82h10.51v-28.71h-55.62v-11.36h51.13v-25.27h-51.13v-10.62h54.87v-28.71h-89.25v91.48c9.25-5.48,20.23-8.64,32.14-8.64Z"/>
  <path d="M362.87,219.51c8.41,0,16.19,1.5,23.18,4.38l35.13-87.22h-38.57l-20.33,58.76-20.33-58.76h-39.17l35.39,87.85c7.43-3.23,15.77-5.01,24.71-5.01Z"/>
  <path d="M68.64,313.62l18.69-22.28c11.36,8.67,24.37,12.26,36.63,12.26,6.28,0,8.97-1.64,8.97-4.48v-.3c0-2.99-3.29-4.63-14.5-6.88-23.47-4.78-44.11-11.51-44.11-33.64v-.3c0-19.89,15.55-35.29,44.4-35.29,20.18,0,35.14,4.78,47.25,14.35l-17.04,23.62c-9.87-7.18-21.68-10.32-31.4-10.32-5.23,0-7.62,1.79-7.62,4.33v.3c0,2.84,2.84,4.63,13.9,6.73,26.76,4.93,44.7,12.71,44.7,33.79v.3c0,21.98-18.09,35.43-46.2,35.43-21.23,0-40.37-5.98-53.67-17.64Z"/>
  <path d="M180.02,277.29v-.3c0-30.35,24.97-54.57,57.26-54.57s56.96,23.92,56.96,54.27v.3c0,30.35-24.97,54.57-57.26,54.57s-56.96-23.92-56.96-54.27Zm78.94,0v-.3c0-12.41-8.52-23.62-21.98-23.62s-21.68,11.06-21.68,23.32v.3c0,12.41,8.52,23.62,21.98,23.62s21.68-11.06,21.68-23.32Z"/>
  <path d="M307.25,277.29v-.3c0-31.25,24.37-54.57,55.62-54.57,23.02,0,38.57,11.21,47.4,27.21l-28.86,16.9c-3.89-7.48-9.42-12.71-18.99-12.71-11.81,0-19.59,10.32-19.59,22.87v.3c0,13.6,8.07,23.17,19.59,23.17,9.87,0,15.4-5.38,19.73-13.16l28.86,16.3c-8.82,15.55-23.47,28.26-49.49,28.26-29.01,0-54.27-21.83-54.27-54.27Z"/>
  <path d="M423.87,224.67h34.99v104.66h-34.99v-104.66Z"/>
  <path d="M513.42,223.92h34.68l44.11,105.4h-37.97l-5.53-14.05h-36.63l-5.38,14.05h-37.38l44.11-105.4Zm26.61,66.53l-9.57-25.42-9.57,25.42h19.14Z"/>
  <path d="M602.37,224.67h34.98v74.75h49.19v29.9h-84.17v-104.66Z"/>
</svg>